<svg width="512" height="512" viewBox="0 0 512 512" fill="none" xmlns="http://www.w3.org/2000/svg">
  <defs>
    <linearGradient id="bg" x1="64" y1="36" x2="438" y2="476" gradientUnits="userSpaceOnUse">
      <stop stop-color="#22B89B"/>
      <stop offset="1" stop-color="#0D7868"/>
    </linearGradient>
    <linearGradient id="highlight" x1="256" y1="48" x2="256" y2="236" gradientUnits="userSpaceOnUse">
      <stop stop-color="white" stop-opacity="0.26"/>
      <stop offset="1" stop-color="white" stop-opacity="0"/>
    </linearGradient>
    <filter id="panelShadow" x="-8" y="-8" width="528" height="528" filterUnits="userSpaceOnUse" color-interpolation-filters="sRGB">
      <feDropShadow dx="0" dy="16" stdDeviation="24" flood-color="#063B33" flood-opacity="0.28"/>
    </filter>
    <filter id="markShadow" x="110" y="189" width="292" height="114" filterUnits="userSpaceOnUse" color-interpolation-filters="sRGB">
      <feDropShadow dx="0" dy="6" stdDeviation="10" flood-color="#0A4F44" flood-opacity="0.24"/>
    </filter>
    <radialGradient id="glow" cx="0" cy="0" r="1" gradientUnits="userSpaceOnUse" gradientTransform="translate(176 152) rotate(45) scale(286)">
      <stop stop-color="white" stop-opacity="0.18"/>
      <stop offset="1" stop-color="white" stop-opacity="0"/>
    </radialGradient>
  </defs>

  <g filter="url(#panelShadow)">
    <rect x="32" y="32" width="448" height="448" rx="108" fill="url(#bg)"/>
    <rect x="32" y="32" width="448" height="448" rx="108" fill="url(#glow)"/>
    <path d="M64 48C64 39.1634 71.1634 32 80 32H432C440.837 32 448 39.1634 448 48V160C448 168.837 440.837 176 432 176H80C71.1634 176 64 168.837 64 160V48Z" fill="url(#highlight)"/>
    <rect x="40" y="40" width="432" height="432" rx="100" stroke="white" stroke-opacity="0.12" stroke-width="2"/>
  </g>

  <g filter="url(#markShadow)">
    <rect x="128" y="217" width="256" height="54" rx="27" fill="#F8FFFD"/>
    <rect x="135" y="224" width="242" height="40" rx="20" fill="white" fill-opacity="0.92"/>
  </g>
</svg>
